# xmcd
# Track frame offsets:
# 150
# 13695
# 30132
# 42319
# 82520
# 105520
# 116274
# 133907
# 143179
# 154879
# 170208
# 182882
# 207127
# 231386
# 248347
# 264238
# 280674
# 307272
#
# Disc length: 4357 seconds
# Revision: 0
# Processed by: cddbd v1.5.2PL0 Copyright (c) Steve Scherf et al.
# Submitted via: VisiTrax 2.10.3.257 - For more info visit www.synapsa.com
#
DISCID=ea110312
DTITLE=Various Artist - Pure Soul Vol. 3
DYEAR=1994
DGENRE=Soul
TTITLE0=Ben E King - Stand By Me
TTITLE1=Ike and Tina Turner - Mississippi Rolling Stone
TTITLE2=Aaron Neville - Tell It Like It Is
TTITLE3=James Brown - It's A Man's World (live)
TTITLE4=Heatwave - Always and Forever
TTITLE5=Sam and Dave - Soul Sister, Brown Sugar
TTITLE6=Marvin Gaye - I Heard It Thru The Grapevine (live)
TTITLE7=Gladys Knight - Every Beat Of My Heart
TTITLE8=Inez Foxx - Mockingbird
TTITLE9=Al Wilson - Show And Tell
TTITLE10=First Choice - Armed And Extremely Dangerous
TTITLE11=Rose Royce - Wishing On A Star
TTITLE12=Marvin Gaye - Inner City Blues
TTITLE13=Ike and Tina Turner - I've Been Loving You Too Long
TTITLE14=Three Degrees - I'll Be Around
TTITLE15=Al Jarreau - Use Me
TTITLE16=James Brown - Georgia On My Mind (live)
TTITLE17=Al Jarreau - Lean On Me
EXTD=
EXTT0=
EXTT1=
EXTT2=
EXTT3=
EXTT4=
EXTT5=
EXTT6=
EXTT7=
EXTT8=
EXTT9=
EXTT10=
EXTT11=
EXTT12=
EXTT13=
EXTT14=
EXTT15=
EXTT16=
EXTT17=
PLAYORDER=
